<svg width="1500" height="340" viewBox="0 0 1500 340" fill="none" xmlns="http://www.w3.org/2000/svg">
  <defs>
    <linearGradient id="blueBook" x1="40" y1="138" x2="170" y2="300" gradientUnits="userSpaceOnUse">
      <stop offset="0" stop-color="#2E8AD6"/>
      <stop offset="1" stop-color="#114D8A"/>
    </linearGradient>
    <linearGradient id="greenBook" x1="178" y1="124" x2="336" y2="292" gradientUnits="userSpaceOnUse">
      <stop offset="0" stop-color="#89CF43"/>
      <stop offset="1" stop-color="#2B8A2B"/>
    </linearGradient>
    <linearGradient id="globeBlue" x1="118" y1="38" x2="210" y2="132" gradientUnits="userSpaceOnUse">
      <stop offset="0" stop-color="#42A4E6"/>
      <stop offset="1" stop-color="#1A6AB8"/>
    </linearGradient>
    <linearGradient id="globeGreen" x1="195" y1="34" x2="292" y2="134" gradientUnits="userSpaceOnUse">
      <stop offset="0" stop-color="#9FDC53"/>
      <stop offset="1" stop-color="#55B83C"/>
    </linearGradient>
    <linearGradient id="ringFade" x1="92" y1="164" x2="308" y2="56" gradientUnits="userSpaceOnUse">
      <stop offset="0" stop-color="#FFFFFF"/>
      <stop offset="1" stop-color="#EEF6FF"/>
    </linearGradient>
  </defs>

  <rect width="1500" height="340" fill="white"/>

  <path d="M40 170C76 149 112 146 160 161V244C116 229 81 231 40 252V170Z" fill="url(#blueBook)"/>
  <path d="M160 161C112 146 76 149 40 170V210C76 188 111 188 160 203V161Z" fill="#2C86D3"/>
  <path d="M40 252C83 230 119 228 160 243V287C117 271 79 274 40 299V252Z" fill="#15538F"/>

  <path d="M160 161C208 146 244 149 320 170V252C280 231 245 229 160 244V161Z" fill="url(#greenBook)"/>
  <path d="M160 161C208 146 244 149 320 170V210C246 188 210 188 160 203V161Z" fill="#8FD044"/>
  <path d="M160 244C245 229 280 231 320 252V299C281 274 243 271 160 287V244Z" fill="#2E8C2E"/>

  <path d="M62 187V238C94 222 121 219 149 225" stroke="white" stroke-width="9" stroke-linecap="round"/>
  <path d="M298 187V238C266 222 239 219 171 225" stroke="white" stroke-width="9" stroke-linecap="round"/>
  <path d="M160 160V286" stroke="white" stroke-width="8" stroke-linecap="round"/>
  <path d="M160 286L138 246" stroke="white" stroke-width="7" stroke-linecap="round"/>
  <path d="M160 286L182 246" stroke="white" stroke-width="7" stroke-linecap="round"/>

  <circle cx="168" cy="103" r="56" fill="url(#globeBlue)"/>
  <path d="M168 47C198.928 47 224 72.072 224 103C224 133.928 198.928 159 168 159V47Z" fill="url(#globeGreen)"/>
  <circle cx="168" cy="103" r="56" stroke="white" stroke-width="4"/>
  <path d="M112 103H224" stroke="white" stroke-width="4"/>
  <path d="M120 75H216" stroke="white" stroke-width="4"/>
  <path d="M120 131H216" stroke="white" stroke-width="4"/>
  <path d="M168 47C152 61 143 81 143 103C143 125 152 145 168 159" stroke="white" stroke-width="4"/>
  <path d="M168 47C184 61 193 81 193 103C193 125 184 145 168 159" stroke="white" stroke-width="4"/>

  <ellipse cx="183" cy="111" rx="104" ry="29" transform="rotate(-28 183 111)" stroke="url(#ringFade)" stroke-width="13"/>
  <ellipse cx="188" cy="108" rx="103" ry="28" transform="rotate(-28 188 108)" stroke="#7CC943" stroke-width="9"/>
  <path d="M91 145C126 147 172 131 228 95C264 72 292 59 317 51" stroke="white" stroke-width="6" stroke-linecap="round"/>

  <g fill="#82CF4A">
    <path d="M254 30L258 40L268 44L258 48L254 58L250 48L240 44L250 40L254 30Z"/>
    <path d="M279 47L282 54L289 57L282 60L279 67L276 60L269 57L276 54L279 47Z"/>
    <path d="M231 43L233.5 49L240 51.5L233.5 54L231 60L228.5 54L222 51.5L228.5 49L231 43Z"/>
    <path d="M236 182L239 189L246 192L239 195L236 202L233 195L226 192L233 189L236 182Z"/>
    <path d="M260 191L262.5 197L269 199.5L262.5 202L260 208L257.5 202L251 199.5L257.5 197L260 191Z"/>
  </g>

  <text x="382" y="126" fill="#2678C7" font-family="Inter, Arial, sans-serif" font-size="84" font-weight="800">IJSRI</text>
  <text x="382" y="186" fill="#2FA92B" font-family="Inter, Arial, sans-serif" font-size="33" font-weight="600">International Journal of Scientific Research &amp; Innovation</text>
</svg>
